Coordinates
version=1
nRows=29
nColumns=24
inDegrees=yes

Units are S.I. units (second, meters, Newtons, ...)
Angles are in degrees.

endheader
time	pelvis_tilt	pelvis_list	pelvis_rotation	pelvis_tx	pelvis_ty	pelvis_tz	hip_flexion_r	hip_adduction_r	hip_rotation_r	knee_angle_r	ankle_angle_r	subtalar_angle_r	mtp_angle_r	hip_flexion_l	hip_adduction_l	hip_rotation_l	knee_angle_l	ankle_angle_l	subtalar_angle_l	mtp_angle_l	lumbar_extension	lumbar_bending	lumbar_rotation
      0.58800000	      0.64303480	      3.06743544	     -0.75419832	     -0.82134029	      1.05528886	      0.34329373	     21.01606274	      1.40078788	    -10.26399866	     -0.28205093	      3.09295876	     -2.77131072	     -0.13082517	    -14.61004653	      7.41906299	     -2.90503459	     -7.04407652	     11.35713985	      3.61593796	      0.12816379	      3.53910070	     -0.90150943	     -2.27452152
      0.59216667	      0.65176627	      3.14290899	     -0.88408463	     -0.81597243	      1.05482648	      0.34343627	     21.05078767	      1.42309513	    -10.04031364	     -0.77777277	      3.08409066	     -2.75445910	     -0.14759304	    -14.69439159	      7.52871362	     -2.98775870	     -7.50508369	     11.24152299	      3.62056098	      0.08582992	      3.39021015	     -0.99622003	     -2.46294669
      0.59633333	      0.69444632	      3.14147663	     -0.87052624	     -0.81027923	      1.05455055	      0.34339309	     20.96823577	      1.47288547	     -9.92156432	     -1.21107313	      3.08854048	     -2.79534485	     -0.15230187	    -14.82179191	      7.51397062	     -2.95368884	     -7.99857168	     11.19876706	      3.60812436	      0.07457719	      3.47283057	     -0.96836285	     -2.50497590
      0.60050000	      0.72202549	      3.16914554	     -0.98700835	     -0.80468693	      1.05417927	      0.34353060	     20.93419796	      1.53852064	     -9.60932817	     -1.72486667	      3.25985884	     -3.15146249	     -0.17584839	    -14.91791634	      7.56163978	     -3.04979448	     -8.49830483	     11.11354347	      3.56017198	      0.02587706	      3.39205668	     -0.98892444	     -2.70587487
      0.60466667	      0.76739887	      3.15479967	     -0.94202087	     -0.79891501	      1.05396069	      0.34342133	     20.81734762	      1.58072470	     -9.44041728	     -2.16179703	      3.21229907	     -3.20327040	     -0.18029175	    -15.02128427	      7.52116396	     -3.00290621	     -9.05041514	     11.05822214	      3.55833212	      0.01782263	      3.48870398	     -0.94602762	     -2.73103332
      0.60883333	      0.82493937	      3.16737593	     -1.09038792	     -0.79327789	      1.05366673	      0.34390387	     20.66101293	      1.70696844	     -8.51284327	     -2.52070809	      3.03844596	     -4.34439376	     -0.24726932	    -15.09933635	      7.51576873	     -3.30877600	     -9.64397209	     10.83466790	      3.68504394	     -0.07228560	      3.45828760	     -1.10131834	     -3.02592846
      0.61300000	      0.85853019	      3.15797824	     -1.06946789	     -0.78749402	      1.05346668	      0.34379044	     20.55947026	      1.73937465	     -8.39980525	     -2.98656529	      2.96383509	     -4.37905026	     -0.25110074	    -15.15606662	      7.48503360	     -3.25975525	    -10.26278840	     10.79047379	      3.69680645	     -0.07586202	      3.52586996	     -0.99499629	     -3.03778739
      0.61716667	      0.85702635	      3.15798271	     -1.18990532	     -0.78173949	      1.05316914	      0.34421235	     20.47452744	      1.85408459	     -7.80295504	     -3.37630918	      2.43363206	     -5.27287303	     -0.31173807	    -15.12793504	      7.45194511	     -3.61736084	    -10.94259646	     10.58788820	      4.10105842	     -0.11345172	      3.54955905	     -1.00763658	     -3.10852487
      0.62133333	      0.89280617	      3.13117978	     -1.13256309	     -0.77590155	      1.05306513	      0.34409460	     20.32637373	      1.88916600	     -7.64790790	     -3.77649620	      2.37970885	     -5.29009884	     -0.31453453	    -15.13980856	      7.37773086	     -3.59755610	    -11.65842150	     10.53273216	      4.09760302	     -0.11431393	      3.60601393	     -0.91296910	     -3.11547864
      0.62550000	      0.91206386	      3.08400143	     -1.22107577	     -0.77003058	      1.05289059	      0.34465989	     20.14030783	      2.05676197	     -6.85300409	     -4.03556975	      1.84070942	     -6.45508786	     -0.38788346	    -15.08942404	      7.24920868	     -4.06568180	    -12.44105851	     10.39545093	      4.69087470	     -0.09060288	      3.59437396	     -0.84387163	     -3.16319210
      0.62966667	      0.96032391	      3.06384464	     -1.18662125	     -0.76422218	      1.05285275	      0.34458119	     19.97519551	      2.08086089	     -6.73674942	     -4.41959071	      1.73216906	     -6.44227272	     -0.39047765	    -15.06363683	      7.17670356	     -4.10116927	    -13.24086908	     10.28516849	      4.69106468	     -0.08844910	      3.65358480	     -0.77096563	     -3.16714871
      0.63383333	      0.92369845	      3.00553101	     -1.18114077	     -0.75825206	      1.05272716	      0.34478173	     19.87501038	      2.18212091	     -6.55692379	     -4.74019883	      1.27511338	     -6.55730331	     -0.40328635	    -14.90615768	      7.02824311	     -4.46204812	    -14.11154294	      9.89243825	      4.88268255	     -0.07369020	      3.55661366	     -0.71024560	     -3.20390298
      0.63800000	      0.98791103	      2.92952298	     -1.27020801	     -0.75230346	      1.05272976	      0.34538967	     19.60337824	      2.36520620	     -5.80631470	     -4.91102364	      0.48761283	     -7.73189524	     -0.45073991	    -14.84780431	      6.84347449	     -4.92316903	    -14.99534716	      9.63395775	      5.67314585	      0.07122510	      3.74897280	     -0.65480385	     -3.25115611
      0.64216667	      0.99012369	      2.87510296	     -1.24218390	     -0.74640835	      1.05273346	      0.34546956	     19.46572204	      2.42938064	     -5.74955229	     -5.24512665	      0.22634593	     -7.75268154	     -0.45643677	    -14.68114821	      6.69121758	     -5.18173541	    -15.95970394	      9.35775130	      5.74748016	      0.09658495	      3.67705261	     -0.55394701	     -3.27035518
      0.64633333	      1.04490909	      2.80883001	     -1.31439093	     -0.74046813	      1.05279688	      0.34572093	     19.27114006	      2.53692148	     -5.58006712	     -5.54961897	     -0.41258243	     -7.98334638	     -0.46964585	    -14.56337513	      6.53728090	     -5.56202511	    -16.90590480	      8.76425722	      6.16322917	      0.16919400	      3.75914513	     -0.43266920	     -3.31108722
      0.65050000	      1.09036891	      2.68850102	     -1.28342552	     -0.73438379	      1.05294442	      0.34612492	     18.99357153	      2.70315813	     -5.13778073	     -5.69478580	     -1.07047751	     -8.68085216	     -0.48697420	    -14.40662500	      6.25241467	     -5.92814404	    -17.94316627	      8.32804418	      6.73246572	      0.36458088	      3.85224463	     -0.34973136	     -3.35015708
      0.65466667	      1.13016587	      2.59448484	     -1.28688521	     -0.72842194	      1.05307899	      0.34639801	     18.78912651	      2.82211682	     -4.96630399	     -5.96858401	     -1.54762311	     -9.02277495	     -0.49515570	    -14.20680990	      6.01707249	     -6.29895902	    -19.02588359	      7.82838207	      7.08024344	      0.54077847	      3.83768308	     -0.21675441	     -3.38640176
      0.65883333	      1.17795920	      2.48708171	     -1.29344797	     -0.72246900	      1.05323563	      0.34680618	     18.55782986	      2.96984822	     -4.64182826	     -6.20670530	     -2.10048760	     -9.74481361	     -0.50260029	    -13.98406439	      5.74280178	     -6.69081836	    -20.16648225	      7.41949389	      7.53155968	      0.97564598	      3.80482418	     -0.06145057	     -3.44042103
      0.66300000	      1.20219589	      2.35600420	     -1.23148504	     -0.71642988	      1.05343122	      0.34691640	     18.36870933	      3.08856411	     -4.66421553	     -6.51100291	     -2.31025356	     -9.69623191	     -0.50235731	    -13.71341512	      5.44115784	     -6.97947265	    -21.35230951	      6.97764522	      7.64477196	      1.02801341	      3.75936370	      0.06317882	     -3.45722928
      0.66716667	      1.27814255	      2.23882386	     -1.25206057	     -0.71044973	      1.05368175	      0.34707965	     18.15408293	      3.20454425	     -4.68905314	     -6.85087567	     -2.78495530	     -9.80046820	     -0.50495871	    -13.48177035	      5.17232125	     -7.29189171	    -22.51540061	      6.03481016	      8.08669806	      1.15694823	      3.82956119	      0.29630093	     -3.50724434
      0.67133333	      1.32645041	      2.08592732	     -1.21590140	     -0.70442289	      1.05393315	      0.34730602	     17.93838269	      3.35540072	     -4.64698726	     -7.15025182	     -3.14830345	     -9.99693662	     -0.50615507	    -13.18447895	      4.82255488	     -7.59429584	    -23.76051830	      5.28135129	      8.42689207	      1.31404984	      3.82804532	      0.49391196	     -3.55697820
      0.67550000	      1.38709773	      1.92111252	     -1.17997179	     -0.69843965	      1.05420842	      0.34753502	     17.71297550	      3.51565003	     -4.60450281	     -7.45878101	     -3.47108029	    -10.20745813	     -0.50682342	    -12.86951232	      4.45138514	     -7.87487425	    -25.05076887	      4.48985247	      8.75835859	      1.49019905	      3.82491408	      0.70482124	     -3.60905800
      0.67966667	      1.43057770	      1.72759286	     -1.10458093	     -0.69242918	      1.05449066	      0.34774672	     17.49226991	      3.69603468	     -4.58374940	     -7.75774078	     -3.61849982	    -10.22564047	     -0.50571667	    -12.50453969	      4.02685713	     -8.11678152	    -26.41994786	      4.01229189	      8.87915846	      1.56261402	      3.74921061	      0.85294715	     -3.63311669
      0.68383333	      1.51880002	      1.54523384	     -1.09715181	     -0.68654212	      1.05481297	      0.34792277	     17.26264801	      3.86426773	     -4.64170877	     -8.11776986	     -3.91677519	    -10.42374466	     -0.50739049	    -12.16678953	      3.63851682	     -8.34571120	    -27.74976403	      2.85107602	      9.32274536	      1.73175729	      3.78314969	      1.20407000	     -3.70060219
      0.68800000	      1.58792483	      1.32415980	     -1.04082904	     -0.68061848	      1.05512808	      0.34817039	     17.02254612	      4.07328134	     -4.65569273	     -8.42936634	     -4.11613462	    -10.58101115	     -0.50732497	    -11.77568773	      3.17296632	     -8.54944302	    -29.15523648	      1.93274147	      9.58775363	      1.92813593	      3.75482440	      1.46353608	     -3.75296220
      0.69216667	      1.66142810	      1.09075265	     -0.98974493	     -0.67476076	      1.05545148	      0.34840248	     16.78351948	      4.29080333	     -4.70155284	     -8.75248400	     -4.25559369	    -10.67746149	     -0.50641792	    -11.35902579	      2.69199557	     -8.72157886	    -30.59786600	      1.00875152	      9.81140191	      2.13702945	      3.71910698	      1.74947478	     -3.80384716
      0.69633333	      1.72662247	      0.84776464	     -0.94346304	     -0.66896274	      1.05575201	      0.34862728	     16.55992929	      4.51603904	     -4.77353865	     -9.08962674	     -4.32891015	    -10.71215195	     -0.50463991	    -10.90533273	      2.19959948	     -8.86059584	    -32.07600030	      0.10307398	      9.99443109	      2.33026167	      3.66953619	      2.06215678	     -3.84999949
      0.70050000	      1.79181541	      0.58384564	     -0.88342870	     -0.66320475	      1.05605384	      0.34883516	     16.33232353	      4.75821026	     -4.87866651	     -9.42080381	     -4.35242773	    -10.70282221	     -0.50229889	    -10.42485186	      1.67778441	     -8.95315983	    -33.58388067	     -0.84173333	     10.14588860	      2.52969859	      3.63027641	      2.38812454	     -3.89068754
      0.70466667	      1.86565275	      0.31792417	     -0.82842607	     -0.65753042	      1.05635937	      0.34904312	     16.09773456	      5.00060521	     -5.00396641	     -9.75196645	     -4.32713092	    -10.64716179	     -0.49901921	     -9.92477733	      1.15525012	     -9.01278783	    -35.11609754	     -1.78646289	     10.25015002	      2.72538958	      3.56749721	      2.72505919	     -3.92789532
